<?xml version="1.0" encoding="UTF-8"?>
<svg width="700pt" height="700pt" version="1.1" viewBox="0 0 700 700" fill="#000" stroke="#000" xmlns="http://www.w3.org/2000/svg" xmlns:xlink="http://www.w3.org/1999/xlink">
 <defs>
  <symbol id="v" overflow="visible">
   <path d="m3.8438-0.23438c-0.19922 0.10547-0.40625 0.18359-0.625 0.23438-0.21094 0.050781-0.43359 0.078125-0.67188 0.078125-0.69922 0-1.25-0.19141-1.6562-0.57812-0.40625-0.39453-0.60938-0.92578-0.60938-1.5938 0-0.66406 0.20312-1.1914 0.60938-1.5781 0.40625-0.38281 0.95703-0.57812 1.6562-0.57812 0.23828 0 0.46094 0.027344 0.67188 0.078125 0.21875 0.054687 0.42578 0.13281 0.625 0.23438v0.85938c-0.19922-0.13281-0.39844-0.23438-0.59375-0.29688-0.19922-0.0625-0.40234-0.09375-0.60938-0.09375-0.38672 0-0.6875 0.125-0.90625 0.375-0.21875 0.24219-0.32812 0.57422-0.32812 1 0 0.4375 0.10938 0.78125 0.32812 1.0312 0.21875 0.24219 0.51953 0.35938 0.90625 0.35938 0.20703 0 0.41016-0.03125 0.60938-0.09375 0.19531-0.0625 0.39453-0.16016 0.59375-0.29688z"/>
  </symbol>
  <symbol id="d" overflow="visible">
   <path d="m2.8125-2.2812c-0.09375-0.039062-0.18359-0.070312-0.26562-0.09375-0.085937-0.019531-0.17188-0.03125-0.26562-0.03125-0.25 0-0.44922 0.085938-0.59375 0.25-0.13672 0.16797-0.20312 0.40625-0.20312 0.71875v1.4375h-1v-3.1406h1v0.51562c0.125-0.19531 0.26953-0.34375 0.4375-0.4375 0.16406-0.10156 0.36719-0.15625 0.60938-0.15625 0.03125 0 0.066406 0.007812 0.10938 0.015625 0.039063 0 0.097656 0.007813 0.17188 0.015625z"/>
  </symbol>
  <symbol id="b" overflow="visible">
   <path d="m3.6094-1.5781v0.28125h-2.3438c0.03125 0.24219 0.11328 0.42188 0.25 0.54688 0.14453 0.11719 0.35156 0.17188 0.625 0.17188 0.20703 0 0.42188-0.03125 0.64062-0.09375s0.44531-0.16016 0.6875-0.29688v0.78125c-0.24219 0.085938-0.48047 0.14844-0.71875 0.1875-0.24219 0.050781-0.47656 0.078125-0.70312 0.078125-0.57422 0-1.0156-0.14062-1.3281-0.42188-0.3125-0.28906-0.46875-0.69531-0.46875-1.2188 0-0.50781 0.14844-0.91016 0.45312-1.2031 0.3125-0.30078 0.73828-0.45312 1.2812-0.45312 0.48828 0 0.87891 0.15234 1.1719 0.45312 0.30078 0.29297 0.45312 0.6875 0.45312 1.1875zm-1.0312-0.32812c0-0.1875-0.058594-0.33594-0.17188-0.45312-0.10547-0.125-0.24609-0.1875-0.42188-0.1875-0.19922 0-0.35938 0.058594-0.48438 0.17188-0.11719 0.10547-0.1875 0.26172-0.21875 0.46875z"/>
  </symbol>
  <symbol id="l" overflow="visible">
   <path d="m1.8906-1.4062c-0.21094 0-0.37109 0.039062-0.48438 0.10938-0.10547 0.0625-0.15625 0.16797-0.15625 0.3125 0 0.125 0.039062 0.22656 0.125 0.29688 0.09375 0.074219 0.21094 0.10938 0.35938 0.10938 0.1875 0 0.34375-0.066406 0.46875-0.20312 0.13281-0.13281 0.20312-0.30469 0.20312-0.51562v-0.10938zm1.5312-0.39062v1.7969h-1.0156v-0.46875c-0.13672 0.19922-0.28906 0.33984-0.45312 0.42188-0.16797 0.082031-0.37109 0.125-0.60938 0.125-0.32422 0-0.58984-0.09375-0.79688-0.28125-0.19922-0.1875-0.29688-0.42969-0.29688-0.73438 0-0.375 0.125-0.64453 0.375-0.8125 0.25-0.16406 0.64453-0.25 1.1875-0.25h0.59375v-0.09375c0-0.15625-0.0625-0.26953-0.1875-0.34375-0.125-0.070312-0.32031-0.10938-0.57812-0.10938-0.21875 0-0.42188 0.023437-0.60938 0.0625-0.17969 0.042969-0.35156 0.10938-0.51562 0.20312v-0.76562c0.21875-0.050781 0.4375-0.09375 0.65625-0.125s0.42969-0.046875 0.64062-0.046875c0.57031 0 0.98438 0.11719 1.2344 0.34375 0.25 0.21875 0.375 0.57812 0.375 1.0781z"/>
  </symbol>
  <symbol id="a" overflow="visible">
   <path d="m1.5781-4.0312v0.89062h1.0312v0.71875h-1.0312v1.3281c0 0.14844 0.023437 0.24609 0.078125 0.29688 0.0625 0.054687 0.17578 0.078125 0.34375 0.078125h0.51562v0.71875h-0.85938c-0.39844 0-0.67969-0.082031-0.84375-0.25-0.15625-0.16406-0.23438-0.44531-0.23438-0.84375v-1.3281h-0.5v-0.71875h0.5v-0.89062z"/>
  </symbol>
  <symbol id="f" overflow="visible">
   <path d="m2.6094-2.6719v-1.6875h1.0156v4.3594h-1.0156v-0.45312c-0.13672 0.1875-0.28906 0.32422-0.45312 0.40625-0.16797 0.082031-0.35938 0.125-0.57812 0.125-0.38672 0-0.70312-0.14844-0.95312-0.45312-0.25-0.3125-0.375-0.70703-0.375-1.1875 0-0.48828 0.125-0.88281 0.375-1.1875 0.25-0.3125 0.56641-0.46875 0.95312-0.46875 0.21875 0 0.41016 0.046875 0.57812 0.14062 0.16406 0.085937 0.31641 0.21875 0.45312 0.40625zm-0.65625 2.0312c0.21875 0 0.37891-0.078125 0.48438-0.23438 0.11328-0.16406 0.17188-0.39453 0.17188-0.6875 0-0.30078-0.058594-0.53125-0.17188-0.6875-0.10547-0.15625-0.26562-0.23438-0.48438-0.23438-0.21094 0-0.37109 0.078125-0.48438 0.23438-0.11719 0.15625-0.17188 0.38672-0.17188 0.6875 0 0.29297 0.054687 0.52344 0.17188 0.6875 0.11328 0.15625 0.27344 0.23438 0.48438 0.23438z"/>
  </symbol>
  <symbol id="k" overflow="visible">
   <path d="m2.1562-0.64062c0.20703 0 0.36719-0.078125 0.48438-0.23438 0.11328-0.16406 0.17188-0.39453 0.17188-0.6875 0-0.30078-0.058594-0.53125-0.17188-0.6875-0.11719-0.15625-0.27734-0.23438-0.48438-0.23438-0.21875 0-0.38672 0.078125-0.5 0.23438-0.11719 0.15625-0.17188 0.38672-0.17188 0.6875 0 0.29297 0.054687 0.52344 0.17188 0.6875 0.11328 0.15625 0.28125 0.23438 0.5 0.23438zm-0.67188-2.0312c0.13281-0.1875 0.28516-0.32031 0.45312-0.40625 0.16406-0.09375 0.35938-0.14062 0.57812-0.14062 0.39453 0 0.71094 0.15625 0.95312 0.46875 0.25 0.30469 0.375 0.69922 0.375 1.1875 0 0.48047-0.125 0.875-0.375 1.1875-0.24219 0.30469-0.55859 0.45312-0.95312 0.45312-0.21875 0-0.41406-0.042969-0.57812-0.125-0.16797-0.082031-0.32031-0.21875-0.45312-0.40625v0.45312h-1v-4.3594h1z"/>
  </symbol>
  <symbol id="e" overflow="visible">
   <path d="m0.0625-3.1406h1.0156l0.84375 2.125 0.70312-2.125h1.0156l-1.3281 3.4375c-0.13672 0.35156-0.29297 0.59766-0.46875 0.73438-0.16797 0.13281-0.39844 0.20312-0.6875 0.20312h-0.57812v-0.65625h0.3125c0.16406 0 0.28516-0.027344 0.35938-0.078125 0.082031-0.054688 0.14453-0.15234 0.1875-0.29688l0.03125-0.078125z"/>
  </symbol>
  <symbol id="j" overflow="visible">
   <path d="m3.0625-0.76562h-1.6875l-0.26562 0.76562h-1.0781l1.5469-4.1875h1.2812l1.5469 4.1875h-1.0781zm-1.4219-0.76562h1.1562l-0.57812-1.6719z"/>
  </symbol>
  <symbol id="i" overflow="visible">
   <path d="m3.3906-2.6094c0.125-0.19531 0.27344-0.34766 0.45312-0.45312 0.17578-0.10156 0.36719-0.15625 0.57812-0.15625 0.35156 0 0.625 0.11719 0.8125 0.34375 0.1875 0.21875 0.28125 0.54297 0.28125 0.96875v1.9062h-1v-1.6406-0.0625-0.125c0-0.21875-0.03125-0.375-0.09375-0.46875-0.0625-0.10156-0.16797-0.15625-0.3125-0.15625-0.19922 0-0.35156 0.078125-0.45312 0.23438-0.09375 0.15625-0.14844 0.38281-0.15625 0.67188v1.5469h-1v-1.6406c0-0.34375-0.03125-0.5625-0.09375-0.65625-0.0625-0.10156-0.16797-0.15625-0.3125-0.15625-0.19922 0-0.35156 0.078125-0.45312 0.23438-0.10547 0.15625-0.15625 0.38281-0.15625 0.67188v1.5469h-1.0156v-3.1406h1.0156v0.46875c0.125-0.17578 0.26562-0.3125 0.42188-0.40625s0.33203-0.14062 0.53125-0.14062c0.21875 0 0.41016 0.058594 0.57812 0.17188 0.16406 0.10547 0.28906 0.25 0.375 0.4375z"/>
  </symbol>
  <symbol id="h" overflow="visible">
   <path d="m3.6406-1.9062v1.9062h-1.0156v-1.4531c0-0.28125-0.007812-0.46875-0.015625-0.5625-0.011719-0.10156-0.03125-0.17969-0.0625-0.23438-0.042969-0.0625-0.10156-0.10938-0.17188-0.14062-0.0625-0.039063-0.13672-0.0625-0.21875-0.0625-0.21094 0-0.375 0.085937-0.5 0.25-0.11719 0.15625-0.17188 0.375-0.17188 0.65625v1.5469h-1v-4.3594h1v1.6875c0.14453-0.1875 0.30078-0.32031 0.46875-0.40625 0.17578-0.09375 0.36719-0.14062 0.57812-0.14062 0.36328 0 0.64062 0.11719 0.82812 0.34375 0.1875 0.21875 0.28125 0.54297 0.28125 0.96875z"/>
  </symbol>
  <symbol id="u" overflow="visible">
   <path d="m2.9375-3.0312v0.75c-0.21875-0.082031-0.42969-0.14453-0.625-0.1875-0.19922-0.050781-0.38672-0.078125-0.5625-0.078125-0.19922 0-0.34375 0.027344-0.4375 0.078125-0.085938 0.042969-0.125 0.11719-0.125 0.21875 0 0.074219 0.03125 0.13672 0.09375 0.1875 0.070312 0.042969 0.19531 0.074219 0.375 0.09375l0.1875 0.015625c0.50781 0.074219 0.85156 0.18359 1.0312 0.32812 0.17578 0.14844 0.26562 0.38281 0.26562 0.70312 0 0.33594-0.125 0.58594-0.375 0.75-0.24219 0.16797-0.60547 0.25-1.0938 0.25-0.21094 0-0.42969-0.015625-0.65625-0.046875-0.21875-0.03125-0.44531-0.078125-0.67188-0.14062v-0.76562c0.19531 0.09375 0.39844 0.16797 0.60938 0.21875 0.21875 0.054688 0.42969 0.078125 0.64062 0.078125 0.19531 0 0.34375-0.023437 0.4375-0.078125 0.10156-0.0625 0.15625-0.14453 0.15625-0.25 0-0.09375-0.039062-0.16016-0.10938-0.20312-0.0625-0.039063-0.19531-0.070313-0.39062-0.09375l-0.1875-0.03125c-0.44922-0.050781-0.76172-0.14844-0.9375-0.29688-0.17969-0.15625-0.26562-0.39062-0.26562-0.70312 0-0.33203 0.11328-0.57812 0.34375-0.73438 0.22656-0.16406 0.57812-0.25 1.0469-0.25 0.1875 0 0.37891 0.015625 0.57812 0.046875 0.20703 0.03125 0.42969 0.078125 0.67188 0.14062z"/>
  </symbol>
  <symbol id="t" overflow="visible">
   <path d="m3.4375-4.0469v0.89062c-0.23047-0.10156-0.45312-0.17969-0.67188-0.23438-0.21875-0.050781-0.42969-0.078125-0.625-0.078125-0.25 0-0.4375 0.039062-0.5625 0.10938-0.125 0.0625-0.1875 0.17188-0.1875 0.32812 0 0.10547 0.039063 0.1875 0.125 0.25 0.082031 0.0625 0.23438 0.12109 0.45312 0.17188l0.45312 0.09375c0.46875 0.09375 0.79688 0.23438 0.98438 0.42188 0.19531 0.1875 0.29688 0.46094 0.29688 0.8125 0 0.46094-0.13672 0.80469-0.40625 1.0312-0.27344 0.21875-0.6875 0.32812-1.25 0.32812-0.26172 0-0.52734-0.027344-0.79688-0.078125-0.27344-0.039062-0.53906-0.11328-0.79688-0.21875v-0.90625c0.25781 0.13672 0.51562 0.24219 0.76562 0.3125 0.25 0.074219 0.48828 0.10938 0.71875 0.10938 0.23828 0 0.42188-0.035156 0.54688-0.10938 0.125-0.082031 0.1875-0.19531 0.1875-0.34375 0-0.125-0.042969-0.22266-0.125-0.29688-0.085937-0.070313-0.25781-0.13281-0.51562-0.1875l-0.40625-0.09375c-0.42969-0.09375-0.74219-0.23828-0.9375-0.4375-0.1875-0.19531-0.28125-0.45703-0.28125-0.78125 0-0.41406 0.13281-0.73438 0.40625-0.95312 0.26953-0.22656 0.65625-0.34375 1.1562-0.34375 0.22656 0 0.46094 0.015625 0.70312 0.046875 0.25 0.03125 0.50391 0.085937 0.76562 0.15625z"/>
  </symbol>
  <symbol id="g" overflow="visible">
   <path d="m0.45312-1.2188v-1.9219h1v0.3125 0.65625 0.5c0 0.25 0.003906 0.43359 0.015625 0.54688 0.007812 0.11719 0.03125 0.19922 0.0625 0.25 0.039062 0.0625 0.09375 0.11719 0.15625 0.15625 0.070312 0.03125 0.14844 0.046875 0.23438 0.046875 0.20703 0 0.36719-0.078125 0.48438-0.23438 0.125-0.16406 0.1875-0.39453 0.1875-0.6875v-1.5469h1v3.1406h-1v-0.45312c-0.14844 0.1875-0.30859 0.32422-0.48438 0.40625-0.16797 0.082031-0.35156 0.125-0.54688 0.125-0.36719 0-0.64062-0.10938-0.82812-0.32812s-0.28125-0.53906-0.28125-0.96875z"/>
  </symbol>
  <symbol id="s" overflow="visible">
   <path d="m0.48438-3.1406h1v3.1406h-1zm0-1.2188h1v0.8125h-1z"/>
  </symbol>
  <symbol id="c" overflow="visible">
   <path d="m1.9688-2.5c-0.21875 0-0.38672 0.085938-0.5 0.25-0.11719 0.15625-0.17188 0.38672-0.17188 0.6875 0 0.30469 0.054687 0.53125 0.17188 0.6875 0.11328 0.15625 0.28125 0.23438 0.5 0.23438s0.38281-0.078125 0.5-0.23438c0.125-0.15625 0.1875-0.38281 0.1875-0.6875 0-0.30078-0.0625-0.53125-0.1875-0.6875-0.11719-0.16406-0.28125-0.25-0.5-0.25zm0-0.71875c0.53906 0 0.96094 0.14844 1.2656 0.4375 0.30078 0.29297 0.45312 0.69922 0.45312 1.2188 0 0.51172-0.15234 0.91406-0.45312 1.2031-0.30469 0.29297-0.72656 0.4375-1.2656 0.4375-0.54297 0-0.96484-0.14453-1.2656-0.4375-0.30469-0.28906-0.45312-0.69141-0.45312-1.2031 0-0.51953 0.14844-0.92578 0.45312-1.2188 0.30078-0.28906 0.72266-0.4375 1.2656-0.4375z"/>
  </symbol>
  <symbol id="r" overflow="visible">
   <path d="m2.5469-4.3594v0.65625h-0.5625c-0.13672 0-0.23438 0.027344-0.29688 0.078125-0.054688 0.054688-0.078125 0.14062-0.078125 0.26562v0.21875h0.85938v0.71875h-0.85938v2.4219h-1v-2.4219h-0.5v-0.71875h0.5v-0.21875c0-0.33203 0.09375-0.58203 0.28125-0.75 0.1875-0.16406 0.48438-0.25 0.89062-0.25z"/>
  </symbol>
  <symbol id="q" overflow="visible">
   <path d="m0.53125-4.1875h1.2031l1.5156 2.875v-2.875h1.0156v4.1875h-1.2031l-1.5156-2.875v2.875h-1.0156z"/>
  </symbol>
  <symbol id="p" overflow="visible">
   <path d="m3.6406-1.9062v1.9062h-1.0156v-1.4688c0-0.26953-0.007812-0.45312-0.015625-0.54688-0.011719-0.10156-0.03125-0.17969-0.0625-0.23438-0.042969-0.0625-0.10156-0.10938-0.17188-0.14062-0.0625-0.039063-0.13672-0.0625-0.21875-0.0625-0.21094 0-0.375 0.085937-0.5 0.25-0.11719 0.15625-0.17188 0.375-0.17188 0.65625v1.5469h-1v-3.1406h1v0.46875c0.14453-0.1875 0.30078-0.32031 0.46875-0.40625 0.17578-0.09375 0.36719-0.14062 0.57812-0.14062 0.36328 0 0.64062 0.11719 0.82812 0.34375 0.1875 0.21875 0.28125 0.54297 0.28125 0.96875z"/>
  </symbol>
  <symbol id="o" overflow="visible">
   <path d="m0.53125-4.1875h1.7812c0.53125 0 0.9375 0.12109 1.2188 0.35938 0.28906 0.24219 0.4375 0.57812 0.4375 1.0156s-0.14844 0.77734-0.4375 1.0156c-0.28125 0.23047-0.6875 0.34375-1.2188 0.34375h-0.70312v1.4531h-1.0781zm1.0781 0.78125v1.1719h0.59375c0.20703 0 0.36719-0.046875 0.48438-0.14062 0.11328-0.10156 0.17188-0.25 0.17188-0.4375s-0.058594-0.33203-0.17188-0.4375c-0.11719-0.10156-0.27734-0.15625-0.48438-0.15625z"/>
  </symbol>
  <symbol id="n" overflow="visible">
   <path d="m0.48438-3.1406h1v3.0781c0 0.42578-0.10547 0.75-0.3125 0.96875-0.19922 0.21875-0.48438 0.32812-0.85938 0.32812h-0.5v-0.65625h0.17188c0.1875 0 0.31641-0.042969 0.39062-0.125 0.070312-0.085937 0.10938-0.25781 0.10938-0.51562zm0-1.2188h1v0.8125h-1z"/>
  </symbol>
  <symbol id="m" overflow="visible">
   <path d="m3.0156-3.0312v0.8125c-0.13672-0.09375-0.27344-0.16016-0.40625-0.20312-0.13672-0.050781-0.28125-0.078125-0.4375-0.078125-0.27344 0-0.48438 0.085938-0.64062 0.25-0.15625 0.16797-0.23438 0.39844-0.23438 0.6875 0 0.29297 0.078125 0.52344 0.23438 0.6875 0.15625 0.15625 0.36719 0.23438 0.64062 0.23438 0.15625 0 0.30469-0.019531 0.45312-0.0625 0.14453-0.050781 0.27344-0.11719 0.39062-0.20312v0.8125c-0.15625 0.0625-0.32031 0.10156-0.48438 0.125-0.15625 0.03125-0.32031 0.046875-0.48438 0.046875-0.5625 0-1.0078-0.14453-1.3281-0.4375-0.3125-0.28906-0.46875-0.69141-0.46875-1.2031 0-0.51953 0.15625-0.92578 0.46875-1.2188 0.32031-0.28906 0.76562-0.4375 1.3281-0.4375 0.16406 0 0.32812 0.015625 0.48438 0.046875 0.16406 0.03125 0.32812 0.078125 0.48438 0.14062z"/>
  </symbol>
 </defs>
 <g>
  <path d="m214.03 340.32h70.496c2.5352 0 4.5898 2.0547 4.5898 4.5898v215.09h129.11l0.003906-215.09c0-2.5352 2.0547-4.5898 4.5898-4.5898h70.496l-139.64-211.75z"/>
  <path d="m357.5 27.832c-0.84766-1.2891-2.2891-2.0625-3.832-2.0625s-2.9844 0.77734-3.832 2.0625l-148.17 224.68c-0.92969 1.4102-1.0117 3.2148-0.21094 4.7031 0.80078 1.4883 2.3516 2.4141 4.043 2.4141h39.512c2.5352 0 4.5898-2.0547 4.5898-4.5898s-2.0547-4.5898-4.5898-4.5898l-30.984 0.003907 139.64-211.75 139.64 211.75h-30.984c-2.5352 0-4.5898 2.0547-4.5898 4.5898 0 2.5352 2.0547 4.5898 4.5898 4.5898h39.512c1.6875 0 3.2422-0.92578 4.043-2.4141 0.80078-1.4883 0.71875-3.293-0.21094-4.7031z"/>
  <path d="m210.9 54.059h19.254v19.512c0 2.5352 2.0547 4.5898 4.5898 4.5898 2.5352 0 4.5898-2.0547 4.5898-4.5898v-19.512h19.254c2.5352 0 4.5898-2.0547 4.5898-4.5898s-2.0547-4.5898-4.5898-4.5898h-19.254v-19.512c0-2.5352-2.0547-4.5898-4.5898-4.5898-2.5352 0-4.5898 2.0547-4.5898 4.5898v19.512h-19.254c-2.5352 0-4.5898 2.0547-4.5898 4.5898s2.0547 4.5898 4.5898 4.5898z"/>
  <path d="m210.79 159.77h-34.922c-2.5352 0-4.5898-2.0547-4.5898-4.5898v-35.352h-20.453v35.352c0 2.5352-2.0547 4.5898-4.5898 4.5898h-34.922v20.773h34.922c2.5352 0 4.5898 2.0547 4.5898 4.5898v35.352h20.453v-35.352c0-2.5352 2.0547-4.5898 4.5898-4.5898h34.922z"/>
  <path d="m584.1 191.39h-19.254v-19.512c0-2.5352-2.0547-4.5898-4.5898-4.5898s-4.5898 2.0547-4.5898 4.5898v19.512h-19.254c-2.5352 0-4.5898 2.0547-4.5898 4.5898s2.0547 4.5898 4.5898 4.5898h19.254v19.512c0 2.5352 2.0547 4.5898 4.5898 4.5898s4.5898-2.0547 4.5898-4.5898v-19.512h19.254c2.5352 0 4.5898-2.0547 4.5898-4.5898s-2.0547-4.5898-4.5898-4.5898z"/>
  <path d="m566.39 39.941h-34.922c-2.5352 0-4.5898-2.0547-4.5898-4.5898v-35.352h-20.453v35.352c0 2.5352-2.0547 4.5898-4.5898 4.5898h-34.922v20.777h34.922c2.5352 0 4.5898 2.0547 4.5898 4.5898v35.355h20.453v-35.355c0-2.5352 2.0547-4.5898 4.5898-4.5898h34.922z"/>
 </g>
</svg>
